<svg width="852" height="200" viewBox="0 0 1 600" fill="none" xmlns="http://www.w3.org/2000/svg">
<g clip-path="url(#clip0)">
<path opacity="0.1" d="M216.763 525.704C248.515 525.704 274.255 520.996 274.255 515.188C274.255 509.379 248.515 504.671 216.763 504.671C185.011 504.671 159.271 509.379 159.271 515.188C159.271 520.996 185.011 525.704 216.763 525.704Z" fill="#4285F4"/>
<path opacity="0.1" d="M529.281 526C568.902 526 601.022 521.292 601.022 515.483C601.022 509.675 568.902 504.967 529.281 504.967C489.659 504.967 457.54 509.675 457.54 515.483C457.54 521.292 489.659 526 529.281 526Z" fill="#4285F4"/>
<path opacity="0.1" d="M8.16592 227.27H68.0475V320.227H12.5498C12.4023 321.182 12.2607 322.143 12.1073 323.104H68.0475V398.072C67.9472 398.038 67.8586 397.998 67.7642 397.957C66.183 397.245 64.6135 396.492 63.044 395.686L62.041 395.169C60.4676 394.322 58.8942 393.426 57.3208 392.481C56.7721 392.151 56.2234 391.809 55.6806 391.459C46.9457 385.886 39.0106 378.825 32.1504 370.52C31.9498 370.298 31.761 370.063 31.5604 369.848C30.6045 368.665 29.6664 367.469 28.7578 366.246L27.7547 364.902C26.6809 363.403 25.6424 361.864 24.6335 360.305C24.486 360.077 24.3444 359.848 24.191 359.633C20.0876 353.153 16.6806 346.137 14.0426 338.734C13.96 338.512 13.8892 338.271 13.8125 338.062C13.0022 335.688 12.2843 333.291 11.6589 330.872C11.3875 329.857 11.1278 328.856 10.9036 327.801C10.821 327.492 10.7502 327.189 10.6853 326.887C7.33399 311.989 6.93867 296.513 6.93867 281.144C6.93867 279.35 6.93867 277.549 6.93867 275.768C6.93867 269.552 7.00358 263.296 7.09798 257.046C7.09798 255.427 7.15698 253.814 7.18648 252.188C7.26909 248.062 7.38709 243.935 7.5405 239.809C7.5759 238.66 7.6231 237.518 7.6762 236.375C7.6762 235.717 7.70571 235.058 7.76471 234.4C7.90631 232.007 8.02432 229.635 8.16592 227.27Z" fill="#4285F4"/>
<path opacity="0.1" d="M68.0474 123.769H35.2008C40.5402 114.25 46.3741 105.104 52.6714 96.3781C57.5509 89.5506 62.7018 82.8978 68.0474 76.4869V123.769Z" fill="#4285F4"/>
<path opacity="0.1" d="M68.0474 126.645V224.394H8.35469C8.35469 224.112 8.39599 223.823 8.41369 223.54C8.4668 222.768 8.5199 221.995 8.5789 221.229C8.6438 220.328 8.7146 219.421 8.79131 218.541C8.86801 217.66 8.95062 216.585 9.03912 215.611C9.12762 214.636 9.21023 213.649 9.31053 212.674C9.41083 211.7 9.49934 210.725 9.60554 209.758C9.71175 208.79 9.80615 207.809 9.91826 206.841C10.0068 206.035 10.1012 205.235 10.1956 204.429C10.3313 203.293 10.4729 202.151 10.6263 201.022C10.6263 200.854 10.6676 200.679 10.6912 200.518C11.7681 192.253 13.2354 184.061 15.0869 175.976C17.0248 167.496 19.4996 159.186 22.4917 151.112C25.6717 142.667 29.395 134.5 33.6313 126.678L68.0474 126.645Z" fill="#4285F4"/>
<path opacity="0.1" d="M82.3436 227.263V320.227H210.243V227.263H82.3436ZM82.3436 323.097V402.93C83.0753 403.105 83.801 403.273 84.5208 403.414C85.5003 403.629 86.4738 403.824 87.471 403.992C87.6598 404.026 87.8545 404.059 88.061 404.079C88.4504 404.153 88.8516 404.214 89.241 404.274C90.2264 404.429 91.2058 404.556 92.1911 404.657C92.6573 404.711 93.1293 404.758 93.6013 404.798L94.74 404.899C95.3596 404.953 95.9732 404.993 96.5809 405.013C96.9585 405.013 97.3362 405.054 97.7256 405.067C98.0206 405.067 98.3156 405.067 98.6224 405.067C98.9292 405.067 99.3658 405.067 99.7375 405.067C100.245 405.067 100.752 405.067 101.254 405.067H101.932C102.44 405.067 102.947 405.067 103.449 405.013H103.484C103.832 405.013 104.186 405.013 104.54 404.96C104.639 404.966 104.737 404.966 104.835 404.96C105.13 404.96 105.425 404.96 105.709 404.913H105.915L107.892 404.738C108.541 404.671 109.196 404.583 109.856 404.503L111.202 404.321C116.675 403.448 122.087 402.136 127.398 400.397C139.328 396.607 150.999 391.305 162.923 387.421C178.341 382.414 195.375 379.955 210.273 386.077V323.097H82.3436ZM210.243 123.769V0.00671729C196.24 -0.166069 182.276 1.69927 168.688 5.55743C136.301 14.8243 107.243 34.9238 82.3436 60.5941V123.762H88.7631V126.631H82.3436V224.394H210.243V126.638H115.119V123.769H210.243ZM374.524 81.9636C366.511 81.6411 358.546 78.7515 351.342 74.2894C337.564 65.755 326.561 52.5771 314.264 41.4556C288.716 18.2918 257.032 4.31423 224.528 0.846715V123.769H407.111L407.565 123.224L374.524 81.9636ZM391.156 78.6037L408.792 100.645V72.8245C402.886 73.6577 397.712 75.6401 391.18 78.5768L391.156 78.6037ZM408.792 422.754V323.097H371.214C371.113 322.673 371.013 322.243 370.895 321.813C371.007 322.243 371.101 322.673 371.208 323.097H224.551V395.169C225.944 396.345 227.318 397.581 228.681 398.838C230.151 400.182 231.602 401.6 233.059 402.991L234.529 404.375C235.231 405.047 235.939 405.719 236.653 406.351C238.069 407.659 239.499 408.949 240.942 410.221C241.656 410.893 242.388 411.498 243.113 412.13C254.635 422.163 266.789 431.216 279.477 439.218C282.32 441.01 285.19 442.76 288.085 444.466C290.014 445.589 291.956 446.704 293.903 447.786C296.829 449.412 299.779 450.98 302.753 452.49C330.169 466.507 359.16 476.125 388.897 481.07C395.501 482.181 402.131 483.055 408.786 483.691V422.747H409.376L408.792 422.754ZM224.551 126.638V224.394H408.816V126.638H224.551ZM224.551 227.263V320.227H408.816V227.263H224.551ZM423.118 72.7035V103.736L445.627 75.6065C438.169 74.2357 430.666 73.2568 423.118 72.6699V72.7035ZM423.118 227.297V320.227H602.338V227.263L423.118 227.297ZM601.683 430.133L602.314 323.097H423.118V484.759C434.662 485.312 446.223 485.155 457.752 484.289H457.953C463.46 483.895 468.941 483.321 474.397 482.569H474.521C503.627 478.711 532.088 470.061 559.012 456.892L601.683 430.133ZM636.895 242.571C636.223 240.764 635.521 238.969 634.807 237.195C633.473 233.835 632.063 230.569 630.612 227.303H616.628V320.227H651.982C651.965 293.912 646.118 267.032 636.913 242.538L636.895 242.571ZM616.628 323.13V415.194C626.588 404.321 635.001 391.883 641.061 377.663C648.348 360.541 651.681 342 651.953 323.117L616.628 323.13ZM616.628 200.208V224.4H629.302C625.468 216.072 621.243 207.986 616.646 200.175L616.628 200.208ZM495.083 90.9415C494.151 90.5383 493.219 90.1284 492.281 89.7319C482.386 85.5704 472.276 82.1098 462.006 79.3697L427.561 122.425L426.9 123.224L427.343 123.775H549.938C532.864 110.389 514.456 99.3567 495.101 90.9079L495.083 90.9415ZM553.531 126.672H425.631L423.118 129.292V224.394H445.149H445.185H602.361V178.328C588.143 158.743 571.732 141.365 553.549 126.638L553.531 126.672Z" fill="#4285F4"/>
<path opacity="0.1" d="M68.0474 175.949V224.394H8.35469C8.35469 224.112 8.39599 223.823 8.41369 223.54C8.4668 222.768 8.5199 221.995 8.5789 221.229C8.6438 220.328 8.7146 219.421 8.79131 218.541C8.86801 217.66 8.95062 216.585 9.03912 215.611C9.12762 214.636 9.21023 213.649 9.31053 212.674C9.41083 211.7 9.49934 210.725 9.60554 209.758C9.71175 208.79 9.80615 207.809 9.91826 206.841C10.0068 206.035 10.1012 205.235 10.1956 204.429C10.3313 203.293 10.4729 202.151 10.6263 201.022C10.6263 200.854 10.6676 200.679 10.6912 200.518C11.7681 192.253 13.2354 184.061 15.0869 175.976L68.0474 175.949Z" fill="#4285F4"/>
<path opacity="0.1" d="M8.16592 227.27H68.0475V320.227H12.5498C12.4023 321.182 12.2607 322.143 12.1073 323.104H68.0475V398.072C67.9472 398.038 67.8586 397.998 67.7642 397.957C66.183 397.245 64.6135 396.492 63.044 395.686L62.041 395.169C60.4676 394.322 58.8942 393.426 57.3208 392.481C56.7721 392.151 56.2234 391.809 55.6806 391.459C46.9457 385.886 39.0106 378.825 32.1504 370.52C31.9498 370.298 31.761 370.063 31.5604 369.848C30.6045 368.665 29.6664 367.469 28.7578 366.246L27.7547 364.902C26.6809 363.403 25.6424 361.864 24.6335 360.305C24.486 360.077 24.3444 359.848 24.191 359.633C20.0876 353.153 16.6806 346.137 14.0426 338.734C13.96 338.512 13.8892 338.271 13.8125 338.062C13.0022 335.688 12.2843 333.291 11.6589 330.872C11.3875 329.857 11.1278 328.856 10.9036 327.801C10.821 327.492 10.7502 327.189 10.6853 326.887C7.33399 311.989 6.93867 296.513 6.93867 281.144C6.93867 279.35 6.93867 277.549 6.93867 275.768C6.93867 269.552 7.00358 263.296 7.09798 257.046C7.09798 255.427 7.15698 253.814 7.18648 252.188C7.26909 248.062 7.38709 243.935 7.5405 239.809C7.5759 238.66 7.6231 237.518 7.6762 236.375C7.6762 235.717 7.70571 235.058 7.76471 234.4C7.90631 232.007 8.02432 229.635 8.16592 227.27Z" fill="#4285F4"/>
<path opacity="0.1" d="M127.368 140.636V224.394H82.3436V140.636H88.7631V112.278H115.114V140.636H127.368Z" fill="#4285F4"/>
<path opacity="0.1" d="M127.368 227.263H82.3495V320.221H127.368V227.263Z" fill="#4285F4"/>
<path opacity="0.1" d="M82.3436 323.103H127.368V400.383C122.057 402.121 116.645 403.431 111.172 404.301L109.827 404.489C109.166 404.577 108.511 404.65 107.862 404.724C107.213 404.798 106.541 404.852 105.886 404.899H105.679C105.396 404.899 105.089 404.939 104.812 404.946H104.511C104.157 404.946 103.803 404.986 103.449 405C102.947 405.034 102.446 405.04 101.932 405.047C101.714 405.047 101.508 405.047 101.289 405.047C100.782 405.047 100.28 405.047 99.7729 405.047H98.6578C98.3569 405.047 98.0678 405.047 97.7551 405.047L96.6163 405C96.0263 405 95.3891 404.926 94.7754 404.879L93.6426 404.785L92.2324 404.637C91.2412 404.536 90.2559 404.409 89.2823 404.254L88.1023 404.066L87.5122 403.972C86.5269 403.797 85.5534 403.609 84.5621 403.394C83.8364 403.253 83.1166 403.078 82.3849 402.91L82.3436 323.103Z" fill="#4285F4"/>
<path opacity="0.1" d="M408.816 130.744H371.691V224.387H408.816V130.744Z" fill="#4285F4"/>
<path opacity="0.1" d="M408.822 227.263V320.227H224.551V280.129H322.702V303.784H371.692V227.263H408.822Z" fill="#4285F4"/>
<path opacity="0.1" d="M409.406 422.774H408.816V483.758C402.168 483.118 395.54 482.246 388.932 481.144C359.181 476.183 330.178 466.545 302.753 452.504C294.835 448.445 287.078 444.014 279.482 439.211C266.795 431.206 254.639 422.152 243.113 412.123C240.218 409.596 237.361 407.012 234.54 404.368C232.587 402.534 230.646 400.652 228.681 398.824C227.318 397.568 225.944 396.331 224.551 395.149V323.104H371.202C371.101 322.673 371.001 322.243 370.895 321.82C371.007 322.243 371.113 322.673 371.213 323.104H408.816V422.734C409.016 422.741 409.211 422.761 409.406 422.774Z" fill="#4285F4"/>
<path opacity="0.1" d="M505.639 123.769H481.448V115.207H492.292V89.7051C493.232 90.0948 494.169 90.4958 495.101 90.908V115.207H505.639V123.769Z" fill="#4285F4"/>
<path opacity="0.1" d="M563.921 224.394H445.161C445.161 224.394 445.161 224.394 445.203 224.427L445.149 224.394H423.118V130.751H429.36V199.967H457.888V158.975H481.454V126.645H505.645V159.002H529.21V199.994H563.921V224.394Z" fill="#4285F4"/>
<path opacity="0.1" d="M423.118 227.263V320.227H563.921V227.263H423.118ZM602.143 429.656L602.338 356.072H563.921V323.144H423.118V484.76C434.662 485.312 446.223 485.155 457.752 484.289H457.953C463.46 483.895 468.941 483.321 474.397 482.569H474.521C503.627 478.711 532.088 470.062 559.012 456.892" fill="#4285F4"/>
<path opacity="0.1" d="M619.13 323.103H651.976C651.687 341.98 648.36 360.52 641.079 377.643C635.019 391.869 626.599 404.308 616.652 415.174V356.038H619.13V323.103Z" fill="#4285F4"/>
<path opacity="0.1" d="M651.994 320.227H619.13V242.538H636.913C646.117 267.032 651.965 293.912 651.994 320.227Z" fill="#4285F4"/>
<path opacity="0.1" d="M408.822 156.777H388.932V186.137H408.822V156.777Z" fill="#4285F4"/>
<path opacity="0.1" d="M408.822 217.633H388.932V224.394H408.822V217.633Z" fill="#4285F4"/>
<path opacity="0.1" d="M408.822 227.263H388.932V246.986H408.822V227.263Z" fill="#4285F4"/>
<path opacity="0.1" d="M408.822 278.49H388.932V307.849H408.822V278.49Z" fill="#4285F4"/>
<path opacity="0.1" d="M408.822 339.346H388.932V368.705H408.822V339.346Z" fill="#4285F4"/>
<path opacity="0.1" d="M408.816 422.734C409.016 422.734 409.211 422.734 409.406 422.774H408.816V429.595H388.932V400.202H408.816V422.734Z" fill="#4285F4"/>
<path opacity="0.1" d="M408.816 461.045V483.725C402.168 483.084 395.54 482.213 388.932 481.11V461.045H408.816Z" fill="#4285F4"/>
<path opacity="0.1" d="M309.792 318.07H224.551V320.227H309.792V318.07Z" fill="#4285F4"/>
<path opacity="0.1" d="M309.792 323.097H224.551V331.362H309.792V323.097Z" fill="#4285F4"/>
<path opacity="0.1" d="M309.792 358.458H224.551V371.75H309.792V358.458Z" fill="#4285F4"/>
<path opacity="0.1" d="M309.786 398.844V412.137H243.113C240.218 409.619 237.359 407.034 234.534 404.382C232.581 402.547 230.646 400.666 228.675 398.844H309.786Z" fill="#4285F4"/>
<path opacity="0.1" d="M309.786 439.225V452.503H302.747C294.837 448.44 287.082 444.007 279.482 439.205L309.786 439.225Z" fill="#4285F4"/>
<path opacity="0.1" d="M474.539 236.275H457.758V255.386H474.539V236.275Z" fill="#4285F4"/>
<path opacity="0.1" d="M111.214 147.228H94.4332V166.34H111.214V147.228Z" fill="#4285F4"/>
<path opacity="0.1" d="M111.214 191.62H94.4332V210.732H111.214V191.62Z" fill="#4285F4"/>
<path opacity="0.1" d="M111.214 236.013H94.4332V255.124H111.214V236.013Z" fill="#4285F4"/>
<path opacity="0.1" d="M111.214 280.398H94.4332V299.51H111.214V280.398Z" fill="#4285F4"/>
<path opacity="0.1" d="M111.214 324.79H94.4332V343.902H111.214V324.79Z" fill="#4285F4"/>
<path opacity="0.1" d="M111.214 369.182H94.4332V388.294H111.214V369.182Z" fill="#4285F4"/>
<path opacity="0.1" d="M538.597 236.275H521.817V255.386H538.597V236.275Z" fill="#4285F4"/>
<path opacity="0.1" d="M474.539 283.415H457.758V302.527H474.539V283.415Z" fill="#4285F4"/>
<path opacity="0.1" d="M538.597 283.415H521.817V302.527H538.597V283.415Z" fill="#4285F4"/>
<path opacity="0.1" d="M474.539 330.549H457.758V349.661H474.539V330.549Z" fill="#4285F4"/>
<path opacity="0.1" d="M538.597 330.549H521.817V349.661H538.597V330.549Z" fill="#4285F4"/>
<path opacity="0.1" d="M474.539 377.69H457.758V396.801H474.539V377.69Z" fill="#4285F4"/>
<path opacity="0.1" d="M538.597 377.69H521.817V396.801H538.597V377.69Z" fill="#4285F4"/>
<path opacity="0.1" d="M474.539 424.831H457.758V443.942H474.539V424.831Z" fill="#4285F4"/>
<path opacity="0.1" d="M538.597 424.831H521.817V443.942H538.597V424.831Z" fill="#4285F4"/>
<path opacity="0.1" d="M457.758 484.289V471.964H474.533V482.535L457.758 484.289Z" fill="#4285F4"/>
<path opacity="0.1" d="M10.6204 200.504V211.438H68.0474V200.504H10.6204ZM16.3437 210.752H11.6589V201.176H16.3791L16.3437 210.752ZM22.061 210.752H17.3408V201.176H22.061V210.752ZM27.7665 210.752H23.0463V201.176H27.7665V210.752ZM33.4838 210.752H28.7696V201.176H33.4897L33.4838 210.752ZM39.1953 210.752H34.4751V201.176H39.1953V210.752ZM44.9126 210.752H40.1924V201.176H44.9126V210.752ZM50.6299 210.752H45.9097V201.176H50.6299V210.752ZM56.3414 210.752H51.6212V201.176H56.3414V210.752ZM62.0528 210.752H57.3326V201.176H62.0528V210.752ZM67.7642 210.752H63.044V201.176H67.7642V210.752Z" fill="#4285F4"/>
<path opacity="0.1" d="M10.6204 232.317V243.25H68.0474V232.317H10.6204ZM16.3437 242.558H11.6589V233.009H16.3791L16.3437 242.558ZM22.061 242.558H17.3408V233.009H22.061V242.558ZM27.7665 242.558H23.0463V233.009H27.7665V242.558ZM33.4838 242.558H28.7696V233.009H33.4897L33.4838 242.558ZM39.1953 242.558H34.4751V233.009H39.1953V242.558ZM44.9126 242.558H40.1924V233.009H44.9126V242.558ZM50.6299 242.558H45.9097V233.009H50.6299V242.558ZM56.3414 242.558H51.6212V233.009H56.3414V242.558ZM62.0528 242.558H57.3326V233.009H62.0528V242.558ZM67.7642 242.558H63.044V233.009H67.7642V242.558Z" fill="#4285F4"/>
<path opacity="0.1" d="M10.6204 264.142V275.096H68.0474V264.142H10.6204ZM16.3437 274.384H11.6589V264.828H16.3791L16.3437 274.384ZM22.061 274.384H17.3408V264.828H22.061V274.384ZM27.7665 274.384H23.0463V264.828H27.7665V274.384ZM33.4838 274.384H28.7696V264.828H33.4897L33.4838 274.384ZM39.1953 274.384H34.4751V264.828H39.1953V274.384ZM44.9126 274.384H40.1924V264.828H44.9126V274.384ZM50.6299 274.384H45.9097V264.828H50.6299V274.384ZM56.3414 274.384H51.6212V264.828H56.3414V274.384ZM62.0528 274.384H57.3326V264.828H62.0528V274.384ZM67.7642 274.384H63.044V264.828H67.7642V274.384Z" fill="#4285F4"/>
<path opacity="0.1" d="M10.6204 295.968V306.888H68.0474V295.968H10.6204ZM16.3437 306.21H11.6589V296.647H16.3791L16.3437 306.21ZM22.061 306.21H17.3408V296.647H22.061V306.21ZM27.7665 306.21H23.0463V296.647H27.7665V306.21ZM33.4838 306.21H28.7696V296.647H33.4897L33.4838 306.21ZM39.1953 306.21H34.4751V296.647H39.1953V306.21ZM44.9126 306.21H40.1924V296.647H44.9126V306.21ZM50.6299 306.21H45.9097V296.647H50.6299V306.21ZM56.3414 306.21H51.6212V296.647H56.3414V306.21ZM62.0528 306.21H57.3326V296.647H62.0528V306.21ZM67.7642 306.21H63.044V296.647H67.7642V306.21Z" fill="#4285F4"/>
<path opacity="0.1" d="M10.8682 327.787C11.0983 328.815 11.3579 329.843 11.6293 330.858V328.473H16.3495V338.028H13.8242C13.9009 338.25 13.9776 338.492 14.0543 338.7H68.0474V327.787H10.8682ZM22.0786 338.028H17.3584V328.473H22.0786V338.028ZM27.7842 338.028H23.064V328.473H27.7842V338.028ZM33.5015 338.028H28.7695V328.473H33.4897L33.5015 338.028ZM39.2129 338.028H34.4927V328.473H39.2129V338.028ZM44.9303 338.028H40.2101V328.473H44.9303V338.028ZM50.6476 338.028H45.9274V328.473H50.6476V338.028ZM56.359 338.028H51.6388V328.473H56.359V338.028ZM62.0704 338.028H57.3503V328.473H62.0704V338.028ZM67.7819 338.028H63.0617V328.473H67.7819V338.028Z" fill="#4285F4"/>
<path opacity="0.1" d="M24.2027 359.613C24.3503 359.828 24.4919 360.07 24.6453 360.285H27.7665V364.875C28.1028 365.332 28.4332 365.789 28.7754 366.219V360.258H33.4956V369.848H31.5839C31.7727 370.07 31.9557 370.305 32.174 370.52H68.0651V359.613H24.2027ZM39.1953 369.848H34.4751V360.299H39.1953V369.848ZM44.9126 369.848H40.1924V360.299H44.9126V369.848ZM50.6299 369.848H45.9097V360.299H50.6299V369.848ZM56.3413 369.848H51.6212V360.299H56.3413V369.848ZM62.0528 369.848H57.3326V360.299H62.0528V369.848ZM67.7642 369.848H63.044V360.299H67.7642V369.848Z" fill="#4285F4"/>
<path opacity="0.1" d="M55.7041 391.432C56.241 391.782 56.7898 392.104 57.3444 392.454V392.118H62.0646V395.142L63.0676 395.673V392.118H67.7878V397.93C67.8783 397.982 67.9732 398.022 68.071 398.051V391.432H55.7041Z" fill="#4285F4"/>
<path opacity="0.1" d="M445.161 224.394H445.197H445.161ZM408.816 422.727H409.406H408.816ZM370.895 321.813C371.007 322.243 371.102 322.673 371.208 323.097C371.113 322.673 371.013 322.243 370.895 321.813ZM445.161 224.373H445.197H445.161ZM88.7868 123.748V126.618H115.143V123.748H88.7868ZM408.816 422.727H409.406H408.816ZM370.895 321.813C371.007 322.243 371.102 322.673 371.208 323.097C371.113 322.673 371.013 322.243 370.895 321.813ZM445.161 224.373H445.197H445.161ZM408.816 422.707H409.406H408.816ZM370.895 321.813C371.007 322.243 371.102 322.673 371.208 323.097C371.113 322.673 371.013 322.243 370.895 321.813Z" fill="#4285F4"/>
<path d="M272.355 255.138C272.355 255.138 270.03 254.768 270.03 250.911C270.03 247.053 268.366 239.85 268.366 239.85C268.366 239.816 266.927 227.303 264.938 225.314C262.95 223.325 260.395 211.646 260.395 211.646C260.395 211.646 259.959 205.309 259.068 203.945C258.177 202.581 256.973 199.241 255.197 194.476C253.421 189.712 246.016 186.412 246.016 186.412C246.016 186.412 232.629 177.569 228.835 174.686C228.49 174.449 228.168 174.172 227.873 173.859C227.212 172.872 224.333 172.851 224.333 172.851C224.032 170.688 223.743 168.201 223.649 165.95C223.649 165.708 223.649 165.466 223.619 165.224C227.849 162.376 231.036 157.886 232.593 152.577C232.664 152.322 232.723 152.053 232.788 151.798C233.041 151.703 233.275 151.548 233.473 151.345C233.671 151.141 233.83 150.892 233.939 150.615C234.281 149.748 234.287 148.733 234.711 147.927C235.207 146.973 236.151 146.462 236.895 145.743C238.771 143.929 239.255 140.871 239.166 138.089C239.107 135.838 238.789 133.566 238.912 131.329L238.948 130.764C238.983 130.428 239.025 130.092 239.078 129.77C239.367 128.103 239.998 126.531 240.352 124.877C240.706 123.224 240.742 121.363 239.915 119.938C238.706 117.848 236.187 117.432 233.974 117.217C231.466 116.975 229.224 117.291 227.619 114.918C226.868 113.679 226.023 112.516 225.094 111.444C224.764 111.095 221.554 108.864 221.554 108.716C218.421 107.063 214.87 106.753 211.553 107.842C209.889 108.393 208.32 109.294 206.632 109.744C202.992 110.725 198.803 109.663 195.711 112.036C193.988 113.38 192.955 115.516 191.988 117.6C191.201 119.316 190.403 121.029 189.592 122.74C188.288 125.556 186.961 128.419 186.412 131.537C186.297 132.215 186.226 132.903 186.2 133.593V133.627C186.2 133.875 186.2 134.124 186.2 134.373V134.689C186.2 134.924 186.2 135.152 186.235 135.361C186.271 135.569 186.265 135.636 186.282 135.777C186.3 135.918 186.33 136.234 186.365 136.449C186.4 136.664 186.471 137.041 186.542 137.336C186.571 137.464 186.613 137.585 186.648 137.706C186.707 137.934 186.778 138.156 186.855 138.378C186.896 138.492 186.937 138.613 186.984 138.727C187.073 138.963 187.179 139.191 187.285 139.399C187.333 139.493 187.368 139.581 187.415 139.668C187.58 139.981 187.761 140.281 187.958 140.569C189.221 142.363 191.079 143.505 192.454 145.185C192.454 145.252 192.454 145.32 192.454 145.38C192.454 145.568 192.454 145.75 192.454 145.938C192.527 149.685 193.403 153.354 195.005 156.628C196.607 159.901 198.887 162.679 201.647 164.72C201.647 164.976 201.676 165.238 201.688 165.493C201.803 167.488 201.781 169.49 201.623 171.481C201.383 171.158 201.082 170.902 200.743 170.729C200.404 170.557 200.035 170.474 199.664 170.486C199.411 170.472 199.157 170.497 198.909 170.56L198.856 170.513V170.573C197.558 170.936 195.959 172.475 194.431 176.85C194.431 176.85 189.781 182.817 186.241 182.568C182.701 182.32 173.738 188.778 173.738 188.778C173.738 188.778 164.994 195.242 163.118 201.828C162.069 205.562 160.812 209.216 159.354 212.768L148.544 238.136L146.55 258.262C146.55 258.262 147.653 267.213 147.435 268.578C147.217 269.942 151.972 282.246 151.972 282.246C151.972 282.246 167.685 313.689 174.104 315.302L174.564 314.932C174.839 315.095 175.13 315.22 175.432 315.302L176.753 314.24C176.833 315.423 176.799 316.613 176.653 317.788C175.768 320.893 176.984 341.153 178.529 345.125C180.075 349.096 179.527 401.17 179.527 401.17L179.308 405.766C179.308 405.766 179.308 405.914 179.361 406.169L179.308 407.258L179.468 407.352C179.633 408.81 179.579 410.289 179.308 411.727C178.754 413.743 178.529 419.441 178.529 419.441C178.529 419.441 174.11 451.616 176.205 458.081C178.299 464.546 180.081 471.629 180.081 471.629C180.081 471.629 182.294 479.693 180.187 481.07C178.081 482.448 172.092 484.759 173.325 488.119C174.446 491.224 178.701 499.543 179.332 500.76L179.279 501.398L178.411 512.103C178.552 513.516 178.888 514.896 179.409 516.189C180.358 518.521 182.205 520.94 185.716 520.678C186.306 520.631 186.99 520.55 187.651 520.449C194.077 519.468 201.989 516.202 201.989 516.202C201.578 515.905 201.201 515.551 200.868 515.147C200.552 514.799 200.302 514.381 200.132 513.919C199.963 513.457 199.878 512.96 199.882 512.459C199.977 510.51 196.773 501.223 195.976 498.939C195.853 498.609 195.788 498.421 195.788 498.421C195.788 498.421 203.092 489.725 201.877 482.018C201.877 482.018 193.793 476.642 196.454 473.692C199.115 470.742 203.871 462.268 203.871 462.268C203.871 462.268 204.089 430.583 203.871 425.852C203.643 422.568 203.78 419.265 204.278 416.021C204.367 415.53 204.473 415.053 204.585 414.583C208.265 415.208 211.98 415.529 215.701 415.544C217.058 415.544 218.439 415.544 219.831 415.449C219.831 415.897 219.849 416.381 219.884 416.901C220.191 424.75 220.763 438.512 221.229 443.626C221.89 450.958 225.543 470.715 225.543 470.715C225.543 470.715 218.574 475.808 226.758 488.361C226.758 488.361 226.758 492.911 226.215 493.569C225.636 495.722 225.169 497.912 224.817 500.128C224.475 502.493 224.333 504.886 224.888 506.129C226.215 509.099 234.18 508.857 234.18 508.857L234.375 508.817C235.879 508.64 237.399 508.805 238.846 509.302C240.293 509.799 241.64 510.619 242.807 511.713C245.833 514.482 257.321 513.266 263.54 512.385C265.977 512.036 267.605 511.713 267.605 511.713C267.684 511.399 267.712 511.071 267.688 510.746C267.623 509.005 266.425 505.188 258.307 501.781C258.307 501.781 250.672 495.935 250.778 490.841H250.619H249.733C250.377 490.801 250.79 490.841 250.79 490.841C250.79 490.841 247.798 478.409 249.02 477.401C250.241 476.393 246.583 462.617 246.583 462.617C246.583 462.617 244.488 439.5 244.376 437.881C244.381 436.491 244.566 435.11 244.925 433.782L244.376 421.108C244.376 421.108 244.27 416.894 244.376 415.523C244.358 414.333 244.273 413.146 244.122 411.969C244.069 411.498 244.016 411.008 243.957 410.524C246.819 409.697 248.677 408.931 248.677 408.931L248.347 364.814C250.778 359.438 251.226 347.645 251.214 339.278C251.214 333.902 251.002 329.924 251.002 329.924L254.324 323.749C254.324 323.749 255.091 316.357 253.875 314.737C253.339 314.005 253.58 313.245 254.023 312.62C254.253 312.413 254.495 312.224 254.749 312.056C254.749 312.056 254.713 311.995 254.672 311.908C254.904 311.687 255.151 311.487 255.41 311.31C255.41 311.31 254.229 309.227 255.286 308.346C256.277 309.112 257.162 309.69 257.835 310.161C257.787 310.651 257.74 310.934 257.74 310.934L258.023 310.262C258.672 310.678 259.068 310.934 259.068 310.934C259.068 310.934 264.272 299.127 264.16 297.386C264.047 295.646 267.7 288.314 267.7 288.314C267.7 288.314 268.142 284.464 270.137 282.851C272.131 281.238 271.682 269.552 271.682 269.552C271.682 269.552 272.237 263.464 273.565 260.977C274.892 258.491 272.355 255.138 272.355 255.138ZM172.783 249.956L172.883 252.772C172.293 251.69 171.868 250.911 171.868 250.911L172.783 249.956Z" fill="url(#paint0_linear)"/>
<path d="M259.351 305.833L258.076 312.015C258.076 312.015 247.869 306.082 246.028 298.542C244.187 291.002 249.108 288.139 249.108 288.139L258.619 292.729L259.351 305.833Z" fill="white"/>
<path opacity="0.1" d="M259.351 305.833L258.076 312.015C258.076 312.015 247.869 306.082 246.028 298.542C244.187 291.002 249.108 288.139 249.108 288.139L258.619 292.729L259.351 305.833Z" fill="black"/>
<path d="M202.065 516.242C202.065 516.242 192.625 520.194 186.135 520.691C182.689 520.953 180.878 518.547 179.945 516.229C179.436 514.94 179.108 513.568 178.972 512.163L179.816 501.512L180.264 495.841L194.053 491.761L196.006 498.562L196.189 499.08C196.973 501.351 200.118 510.591 200.024 512.52C200.02 513.013 200.104 513.503 200.27 513.959C200.436 514.415 200.682 514.828 200.992 515.174C201.308 515.581 201.669 515.94 202.065 516.242Z" fill="white"/>
<path d="M266.549 510.826C266.573 511.15 266.545 511.475 266.467 511.787C266.467 511.787 246.276 515.624 242.146 511.787C240.981 510.666 239.624 509.835 238.161 509.347C236.698 508.858 235.161 508.724 233.649 508.952C233.649 508.952 225.838 509.193 224.534 506.264C223.991 505.034 224.132 502.648 224.469 500.296C224.812 498.092 225.269 495.913 225.838 493.771L226.15 493.489L228.009 491.789L249.769 491.056H249.934C249.828 496.123 257.321 501.936 257.321 501.936C265.281 505.296 266.455 509.093 266.549 510.826Z" fill="white"/>
<path opacity="0.1" d="M266.549 510.826C266.57 511.15 266.54 511.475 266.461 511.787C266.461 511.787 246.276 515.624 242.146 511.787C240.982 510.667 239.626 509.836 238.164 509.348C236.702 508.86 235.166 508.725 233.655 508.951C233.655 508.951 225.838 509.193 224.54 506.263C223.997 505.027 224.132 502.648 224.469 500.296C227.478 500.639 232.228 501.492 234.092 503.528C236.912 506.626 241.692 509.717 244.624 509.959C246.919 510.127 260.649 510.625 266.549 510.826Z" fill="black"/>
<path opacity="0.1" d="M202.066 516.243C202.066 516.243 192.625 520.194 186.135 520.691C182.689 520.953 180.878 518.548 179.951 516.222C182.353 517.143 185.686 518.111 187.439 517.224C189.516 516.175 196.879 515.497 201.009 515.208C201.324 515.6 201.678 515.947 202.066 516.243Z" fill="black"/>
<path d="M216.073 197.816C208.284 194.369 198.266 182.978 200.767 177.656C201.323 176.313 201.653 174.864 201.741 173.382C201.902 171.371 201.926 169.349 201.812 167.334C201.636 164.034 201.288 160.749 200.767 157.496C200.767 157.496 225.082 158.121 223.666 162.2C223.253 163.396 223.188 165.473 223.3 167.798C223.413 170.123 223.708 172.751 224.014 174.975C224.439 178.026 224.864 180.351 224.864 180.351C224.864 180.351 223.377 182.723 222.504 182.851C221.631 182.978 227.248 202.728 216.073 197.816Z" fill="#CF6F80"/>
<path opacity="0.1" d="M196.171 499.08L195.988 499.308C188.719 489.295 179.928 501.774 179.928 501.774L179.798 501.512L180.246 495.84L194.035 491.761L195.988 498.562L196.171 499.08Z" fill="black"/>
<path opacity="0.1" d="M249.94 491.762C249.94 491.762 244.63 491.634 241.798 494.483C238.966 497.333 225.277 495.102 225.867 494.483C226.042 494.177 226.147 493.826 226.174 493.462L228.033 491.762L249.793 491.029C249.875 491.48 249.94 491.762 249.94 491.762Z" fill="black"/>
<path d="M205.216 413.131C204.821 414.245 204.52 415.399 204.319 416.578C203.827 419.808 203.691 423.095 203.912 426.363C204.131 431.067 203.912 462.59 203.912 462.59C203.912 462.59 199.245 470.997 196.643 473.96C194.041 476.924 201.953 482.246 201.953 482.246C203.133 489.907 195.982 498.562 195.982 498.562C188.713 488.549 179.922 501.035 179.922 501.035C179.922 501.035 175.143 491.627 173.951 488.267C172.759 484.907 178.618 482.582 180.677 481.218C182.736 479.854 180.577 471.81 180.577 471.81C180.577 471.81 178.836 464.761 176.771 458.33C174.706 451.899 179.049 419.885 179.049 419.885C179.049 419.885 179.273 414.199 179.81 412.217C180.081 410.787 180.135 409.314 179.969 407.863C179.934 407.372 179.892 406.962 179.863 406.687C179.833 406.411 179.81 406.283 179.81 406.283L179.892 406.122L182.843 399.859C182.843 399.859 206.632 409.186 205.216 413.131Z" fill="#4285F4"/>
<path d="M249.94 491.022C249.94 491.022 244.63 490.895 241.798 493.71C238.966 496.526 225.277 494.329 225.867 493.71C226.457 493.092 226.41 488.516 226.41 488.516C218.38 476.03 225.23 470.963 225.23 470.963C225.23 470.963 221.643 451.307 220.993 444.016C220.539 438.922 219.979 425.234 219.678 417.418C219.548 414.058 219.471 411.747 219.471 411.747L226.032 410.241L226.876 410.047L242.7 406.431C242.7 406.431 243.137 409.791 243.432 412.54C243.579 413.713 243.662 414.896 243.68 416.081C243.574 417.425 243.68 421.632 243.68 421.632L244.217 434.245C243.866 435.568 243.685 436.942 243.68 438.324C243.786 439.93 245.845 462.926 245.845 462.926C245.845 462.926 249.427 476.648 248.205 477.636C246.984 478.624 249.94 491.022 249.94 491.022Z" fill="#4285F4"/>
<path opacity="0.1" d="M223.666 162.2C223.253 163.396 223.188 165.473 223.3 167.798C220.044 170.032 216.299 171.174 212.498 171.093C208.697 171.012 204.993 169.712 201.812 167.341C201.637 164.039 201.288 160.751 200.767 157.496C200.767 157.496 225.082 158.108 223.666 162.2Z" fill="black"/>
<path d="M233.065 147.349C233.07 149.771 232.735 152.178 232.074 154.479C230.596 159.636 227.565 164.031 223.516 166.889C219.468 169.746 214.663 170.881 209.95 170.094C205.238 169.307 200.921 166.648 197.764 162.586C194.607 158.525 192.812 153.323 192.696 147.9C192.696 147.712 192.696 147.537 192.696 147.349C192.65 144.297 193.138 141.264 194.132 138.429C195.126 135.594 196.606 133.012 198.485 130.835C200.364 128.658 202.605 126.929 205.077 125.748C207.549 124.568 210.203 123.96 212.884 123.96C215.564 123.96 218.218 124.568 220.69 125.748C223.162 126.929 225.403 128.658 227.282 130.835C229.161 133.012 230.641 135.594 231.635 138.429C232.629 141.264 233.117 144.297 233.071 147.349H233.065Z" fill="#CF6F80"/>
<path opacity="0.1" d="M216.073 197.816C208.284 194.369 198.266 182.978 200.767 177.656C201.323 176.313 201.653 174.864 201.741 173.382L212.403 183.362L218.999 189.524L224.014 174.982C224.439 178.033 224.864 180.358 224.864 180.358C224.864 180.358 223.377 182.73 222.504 182.858C221.631 182.985 227.248 202.729 216.073 197.816Z" fill="black"/>
<path d="M243.644 241.919L234.741 412.271L223.129 413.138L193.062 314.361L197.994 197.09L199.033 172.314L212.403 184.82L219.005 190.982L224.168 176.016L233.767 185.545L243.644 241.919Z" fill="#4285F4"/>
<path opacity="0.1" d="M205.216 413.131C204.821 414.245 204.52 415.399 204.319 416.579C195.87 415.093 187.664 412.173 179.975 407.916L179.816 407.822L179.869 406.74L179.898 406.176L182.848 399.913C182.848 399.913 206.632 409.187 205.216 413.131Z" fill="black"/>
<path opacity="0.1" d="M226.168 416.605C224.008 417.024 221.829 417.306 219.642 417.452C219.512 414.092 219.436 411.78 219.436 411.78L225.997 410.275L226.168 416.605Z" fill="black"/>
<path opacity="0.1" d="M243.397 412.573C239.202 413.817 232.723 415.214 226.923 414.341L226.841 410.08L242.665 406.465C242.665 406.465 243.102 409.791 243.397 412.573Z" fill="black"/>
<path opacity="0.1" d="M226.817 415.12C202.626 419.824 180.471 406.337 180.471 406.337L180.683 401.768C180.683 401.768 181.232 349.963 179.709 345.992C178.187 342.02 177.001 321.88 177.863 318.789C178.724 315.698 174.718 269.344 174.718 269.344L174.069 250.528L150.314 239.567L160.935 214.354C162.369 210.819 163.603 207.183 164.628 203.468C166.475 196.922 175.048 190.491 175.048 190.491C175.048 190.491 183.84 184.067 187.315 184.309C190.79 184.551 195.345 178.624 195.345 178.624C198.708 168.86 201.753 173.281 201.753 173.281C201.753 173.745 201.753 173.281 201.588 174.726C200.407 185.445 220.669 219.313 220.958 219.911L222.887 273.443L224.84 341.187L226.817 415.12Z" fill="black"/>
<path d="M226.168 415.12C201.977 419.824 179.816 406.337 179.816 406.337L180.034 401.768C180.034 401.768 180.583 349.963 179.055 345.992C177.526 342.02 176.346 321.881 177.214 318.789C178.081 315.698 174.069 269.344 174.069 269.344L173.414 250.528L149.648 239.527L160.268 214.314C161.7 210.777 162.933 207.141 163.962 203.427C165.803 196.882 174.382 190.451 174.382 190.451C174.382 190.451 183.173 184.027 186.642 184.269C190.112 184.511 194.672 178.584 194.672 178.584C198.041 168.819 201.753 173.241 201.753 173.241C201.753 173.705 201.399 173.913 201.588 174.686C204.184 185.082 220.02 219.273 220.309 219.871L222.262 273.403L224.215 341.147L226.168 415.12Z" fill="white"/>
<path opacity="0.1" d="M219.648 221.397C217.046 220.16 203.263 202.238 203.263 202.238V198.159C202.762 196.815 199.782 197.635 197.363 198.576L198.401 173.799L199.581 174.914C202.166 185.304 219.347 220.798 219.648 221.397Z" fill="black"/>
<path d="M220.303 219.912C217.695 218.675 203.912 200.753 203.912 200.753V196.674C203.411 195.33 200.431 196.15 198.012 197.091L199.056 172.314L200.236 173.429C202.827 183.819 220.014 219.32 220.303 219.912Z" fill="white"/>
<path opacity="0.1" d="M180.471 309.294C180.795 309.294 197.292 307.318 197.292 307.318C197.292 307.318 207.281 329.689 206.626 335.132C205.971 340.575 204.785 345.394 200.767 344.54C196.749 343.687 179.143 345.212 179.143 345.212L180.471 309.294Z" fill="black"/>
<path d="M179.816 307.809C180.14 307.809 196.637 305.833 196.637 305.833C196.637 305.833 206.621 328.211 205.971 333.647C205.322 339.084 204.125 343.909 200.113 343.055C196.1 342.202 178.488 343.727 178.488 343.727L179.816 307.809Z" fill="white"/>
<path d="M192.247 297.306C192.247 297.306 207.387 306.573 207.712 309.402C208.036 312.231 200.006 308.165 198.272 307.675C197.13 307.361 195.968 307.155 194.796 307.056L183.226 307.413L192.247 297.306Z" fill="#CF6F80"/>
<path opacity="0.1" d="M215.424 222.552C216.303 222.552 217.017 221.74 217.017 220.738C217.017 219.736 216.303 218.924 215.424 218.924C214.544 218.924 213.831 219.736 213.831 220.738C213.831 221.74 214.544 222.552 215.424 222.552Z" fill="black"/>
<path d="M215.424 221.813C216.303 221.813 217.017 221.001 217.017 219.999C217.017 218.997 216.303 218.184 215.424 218.184C214.544 218.184 213.831 218.997 213.831 219.999C213.831 221.001 214.544 221.813 215.424 221.813Z" fill="#3F3D56"/>
<path opacity="0.1" d="M218.356 301.095C219.236 301.095 219.949 300.283 219.949 299.281C219.949 298.279 219.236 297.467 218.356 297.467C217.476 297.467 216.763 298.279 216.763 299.281C216.763 300.283 217.476 301.095 218.356 301.095Z" fill="black"/>
<path d="M218.356 300.349C219.236 300.349 219.949 299.537 219.949 298.535C219.949 297.533 219.236 296.721 218.356 296.721C217.476 296.721 216.763 297.533 216.763 298.535C216.763 299.537 217.476 300.349 218.356 300.349Z" fill="#3F3D56"/>
<path opacity="0.1" d="M217.011 261.824C217.891 261.824 218.604 261.012 218.604 260.01C218.604 259.008 217.891 258.195 217.011 258.195C216.131 258.195 215.418 259.008 215.418 260.01C215.418 261.012 216.131 261.824 217.011 261.824Z" fill="black"/>
<path d="M217.011 261.085C217.891 261.085 218.604 260.272 218.604 259.27C218.604 258.268 217.891 257.456 217.011 257.456C216.131 257.456 215.418 258.268 215.418 259.27C215.418 260.272 216.131 261.085 217.011 261.085Z" fill="#3F3D56"/>
<path d="M253.734 306.68C253.734 306.68 254.819 308.535 253.734 309.401C252.648 310.268 253.84 312.365 253.84 312.365C253.84 312.365 251.132 314.173 252.324 315.799C253.516 317.425 252.76 324.77 252.76 324.77L249.503 330.912C249.503 330.912 249.698 334.87 249.71 340.219C249.71 348.565 249.279 360.299 246.895 365.648L247.226 409.536C247.226 409.536 235.821 414.28 226.274 412.835L224.858 342.41C224.858 342.41 226.923 302.473 227.684 294.812C228.13 290.835 228.311 286.825 228.227 282.817C228.227 282.817 227.903 270.829 226.811 265.265C226.811 265.265 225.631 241.16 225.513 234.487C225.46 231.295 225.607 221.981 225.773 213.124C225.956 203.441 226.162 194.308 226.162 194.308L224.008 174.901C224.008 174.901 226.162 174.652 226.811 175.64C227.102 175.949 227.418 176.226 227.755 176.467C231.472 179.329 244.606 188.133 244.606 188.133C244.606 188.133 251.875 191.425 253.616 196.143C255.356 200.86 256.566 204.207 257.41 205.551C258.253 206.895 258.714 213.212 258.714 213.212C258.714 213.212 261.215 224.837 263.168 226.806C265.121 228.775 266.549 241.301 266.549 241.301L249.291 256.757C249.291 256.757 247.775 282.468 247.45 283.462C247.126 284.457 253.734 306.68 253.734 306.68Z" fill="white"/>
<path d="M254.389 306.68C254.389 306.68 255.469 308.534 254.389 309.401C253.309 310.268 254.489 312.365 254.489 312.365C254.489 312.365 251.799 314.193 252.979 315.819C254.159 317.445 253.415 324.79 253.415 324.79L250.158 330.932C250.158 330.932 250.353 334.89 250.371 340.239C250.371 348.586 249.94 360.319 247.556 365.668L247.881 409.556C247.881 409.556 236.458 414.3 226.923 412.855L225.513 342.43C225.513 342.43 227.578 302.493 228.339 294.832C228.785 290.855 228.965 286.845 228.876 282.837C228.876 282.837 228.552 270.849 227.466 265.285C227.466 265.285 226.286 241.18 226.162 234.507C226.109 231.315 226.262 222.001 226.422 213.144C226.605 203.461 226.811 194.328 226.811 194.328L223.967 174.659C223.967 174.659 226.811 174.659 227.466 175.66C227.754 175.973 228.071 176.25 228.41 176.487C232.127 179.349 245.267 188.153 245.267 188.153C245.267 188.153 252.53 191.445 254.271 196.163C256.011 200.88 257.221 204.227 258.071 205.571C258.92 206.915 259.369 213.232 259.369 213.232C259.369 213.232 261.87 224.857 263.823 226.826C265.776 228.795 267.186 241.294 267.186 241.294L249.928 256.75C249.928 256.75 248.412 282.461 248.082 283.455C247.751 284.45 254.389 306.68 254.389 306.68Z" fill="white"/>
<path opacity="0.1" d="M233.72 200.034L235.278 205.208L227.077 214.616C227.26 204.939 227.466 195.8 227.466 195.8L224.622 176.131C224.622 176.131 227.466 176.131 228.121 177.132C228.408 177.444 228.725 177.719 229.065 177.952L236.039 200.867L233.72 200.034Z" fill="black"/>
<path d="M233.065 198.548L234.629 203.723L226.428 213.131C226.611 203.447 226.817 194.315 226.817 194.315L223.967 174.646C223.967 174.646 226.817 174.646 227.466 175.647C227.755 175.958 228.072 176.235 228.41 176.473L235.39 199.382L233.065 198.548Z" fill="white"/>
<path opacity="0.1" d="M233.065 147.349C233.07 149.771 232.735 152.178 232.074 154.479C231.963 154.499 231.849 154.493 231.739 154.462C231.63 154.431 231.527 154.375 231.437 154.298C231.283 148.25 228.67 142.571 225.454 137.74C224.551 136.281 223.457 134.989 222.209 133.909C220.947 132.83 219.378 132.325 217.807 132.491C216.037 132.767 214.474 134.138 212.686 134.312C210.326 134.534 208.214 132.673 205.871 132.579C204.919 132.589 203.98 132.83 203.116 133.287C202.252 133.743 201.484 134.405 200.862 135.226C199.631 136.884 198.717 138.816 198.177 140.898C197.25 144.055 196.744 147.354 196.679 150.682C196.649 152.564 196.49 154.923 194.956 155.608C195.071 154.224 194.933 152.828 194.55 151.508C194.167 150.188 193.548 148.973 192.731 147.94L192.696 147.9C192.696 147.712 192.696 147.537 192.696 147.349C192.65 144.297 193.138 141.264 194.132 138.429C195.126 135.594 196.606 133.012 198.485 130.835C200.364 128.658 202.605 126.929 205.077 125.748C207.549 124.568 210.203 123.96 212.884 123.96C215.564 123.96 218.218 124.568 220.69 125.748C223.162 126.929 225.403 128.658 227.282 130.835C229.161 133.012 230.641 135.594 231.635 138.429C232.629 141.264 233.117 144.297 233.071 147.349H233.065Z" fill="black"/>
<path d="M221.241 110.84C218.175 109.197 214.688 108.886 211.435 109.966C209.801 110.517 208.261 111.411 206.603 111.861C203.063 112.835 198.932 111.78 195.894 114.139C194.206 115.483 193.192 117.607 192.247 119.67L189.887 124.79C188.601 127.592 187.303 130.442 186.766 133.526C186.229 136.611 186.554 140.065 188.271 142.544C189.522 144.352 191.368 145.488 192.725 147.188C193.538 148.222 194.155 149.436 194.537 150.754C194.919 152.073 195.057 153.467 194.944 154.849C196.484 154.177 196.631 151.811 196.667 149.93C196.733 146.601 197.238 143.303 198.165 140.145C198.704 138.063 199.618 136.131 200.85 134.474C201.472 133.653 202.241 132.992 203.104 132.536C203.968 132.079 204.907 131.837 205.859 131.826C208.219 131.92 210.338 133.775 212.674 133.553C214.444 133.385 216.014 132.007 217.796 131.739C219.367 131.569 220.937 132.075 222.197 133.157C223.445 134.235 224.537 135.527 225.436 136.987C228.658 141.819 231.272 147.484 231.425 153.545C232.092 154.103 233.054 153.377 233.384 152.517C233.714 151.657 233.726 150.649 234.145 149.829C234.629 148.881 235.555 148.377 236.281 147.665C238.122 145.857 238.582 142.813 238.511 140.051C238.44 137.289 237.968 134.487 238.429 131.772C238.706 130.106 239.331 128.547 239.674 126.9C240.016 125.254 240.057 123.406 239.249 121.988C238.069 119.905 235.585 119.495 233.419 119.3C230.959 119.058 228.758 119.367 227.189 117.008C226.452 115.778 225.623 114.622 224.711 113.554C224.398 113.205 221.241 110.987 221.241 110.84Z" fill="#512E4E"/>
<path opacity="0.1" d="M157.112 252.551L150.946 239.568L148.993 259.6C148.993 259.6 150.078 268.497 149.86 269.861C149.642 271.225 154.309 283.456 154.309 283.456C154.309 283.456 169.726 314.73 176.022 316.343L197.292 299.033L191.652 290.875C191.652 290.875 189.699 290.008 189.209 290.875C189.209 290.875 178.736 270.352 177.65 268.867C176.565 267.382 176.777 264.418 176.777 264.418C176.777 264.418 175.149 262.442 175.691 260.588C176.234 258.733 172.547 252.302 172.547 252.302L175.91 248.72L157.112 252.551Z" fill="black"/>
<path d="M151.27 238.089L149.642 239.567L147.689 259.6C147.689 259.6 148.775 268.497 148.556 269.861C148.338 271.225 153.011 283.455 153.011 283.455C153.011 283.455 168.422 314.73 174.718 316.343L195.994 299.032L190.348 290.874C190.348 290.874 188.395 290.007 187.905 290.874C187.905 290.874 177.432 270.352 176.346 268.866C175.261 267.381 175.479 264.418 175.479 264.418C175.479 264.418 173.851 262.442 174.393 260.587C174.936 258.733 171.243 252.302 171.243 252.302L174.606 248.72L151.27 238.089Z" fill="white"/>
<path opacity="0.1" d="M252.324 316.565C253.504 318.198 252.76 325.529 252.76 325.529L249.503 331.672C249.503 331.672 249.698 335.636 249.71 340.979L244.234 342.927C243.74 343.104 243.215 343.142 242.704 343.04C242.194 342.938 241.712 342.699 241.299 342.342C240.886 341.985 240.554 341.52 240.331 340.988C240.108 340.455 240 339.869 240.016 339.279L240.96 304.597L253.734 310.161C252.648 311.021 253.84 313.131 253.84 313.131C253.84 313.131 251.132 314.932 252.324 316.565Z" fill="black"/>
<path d="M252.979 315.819C254.159 317.452 253.415 324.79 253.415 324.79L250.158 330.932C250.158 330.932 250.353 334.89 250.371 340.24L244.795 342.222C244.31 342.393 243.797 342.431 243.297 342.33C242.797 342.23 242.326 341.995 241.922 341.646C241.518 341.296 241.193 340.841 240.974 340.32C240.755 339.798 240.649 339.225 240.665 338.647L241.615 303.858L254.395 309.422C253.303 310.282 254.495 312.385 254.495 312.385C254.495 312.385 251.799 314.193 252.979 315.819Z" fill="white"/>
<path d="M257.209 299.288C257.209 299.288 256.342 305.598 254.17 305.968C251.999 306.337 251.026 316.175 248.86 315.826C246.695 315.476 248.129 306.68 248.205 304.973C248.282 303.266 245.845 296.197 247.668 294.591C249.492 292.985 255.262 294.591 255.262 294.591L257.209 299.288Z" fill="#CF6F80"/>
<path opacity="0.1" d="M261.829 250.696L265.924 241.288C265.924 241.288 267.552 248.458 267.552 252.288C267.552 256.119 269.83 256.495 269.83 256.495C269.83 256.495 272.325 259.855 271.01 262.301C269.694 264.747 269.163 270.835 269.163 270.835C269.163 270.835 269.594 282.454 267.641 284.06C265.688 285.666 265.281 289.503 265.281 289.503C265.281 289.503 261.693 296.795 261.805 298.528C261.917 300.262 256.814 312.002 256.814 312.002C256.814 312.002 259.31 297.413 244.765 291.11C244.765 291.11 244.653 286.157 245.739 284.799C246.825 283.442 248.518 282.824 247.456 275.963C246.394 269.102 247.149 260.903 247.149 259.257C247.149 257.61 250.406 247.342 250.406 247.342L261.829 250.696Z" fill="black"/>
<path d="M263.599 239.944L267.175 241.288C267.175 241.288 268.809 248.458 268.809 252.288C268.809 256.119 271.087 256.495 271.087 256.495C271.087 256.495 273.582 259.855 272.267 262.301C270.951 264.747 270.426 270.835 270.426 270.835C270.426 270.835 270.856 282.454 268.903 284.06C266.95 285.666 266.514 289.504 266.514 289.504C266.514 289.504 262.932 296.795 263.045 298.528C263.157 300.262 258.047 312.002 258.047 312.002C258.047 312.002 260.549 297.413 245.999 291.11C245.999 291.11 245.893 286.157 246.978 284.8C248.064 283.442 249.757 282.824 248.695 275.963C247.633 269.102 248.388 260.903 248.388 259.257C248.388 257.611 251.645 247.342 251.645 247.342L263.599 239.944Z" fill="white"/>
<path opacity="0.1" d="M184.624 483.792C184.624 483.792 190.324 479.713 194.065 482.676C197.806 485.64 184.624 483.792 184.624 483.792Z" fill="black"/>
<path opacity="0.1" d="M228.912 471.178C228.912 471.178 233.956 470.439 238.193 475.634C242.429 480.828 228.912 471.178 228.912 471.178Z" fill="black"/>
<g opacity="0.1">
<path opacity="0.1" d="M236.293 146.193C235.567 146.906 234.635 147.416 234.151 148.364C233.738 149.177 233.726 150.178 233.396 151.052C233.065 151.925 232.103 152.638 231.437 152.087C231.283 146.039 228.664 140.36 225.448 135.522C224.549 134.062 223.456 132.769 222.209 131.691C220.946 130.61 219.374 130.104 217.801 130.274C216.031 130.549 214.474 131.92 212.686 132.088C210.326 132.316 208.208 130.455 205.865 130.361C204.913 130.372 203.974 130.614 203.111 131.072C202.248 131.53 201.481 132.192 200.862 133.015C199.63 134.67 198.716 136.599 198.177 138.68C197.25 141.838 196.745 145.136 196.678 148.465C196.643 150.339 196.49 152.678 194.967 153.377C195.003 153.873 195.003 154.372 194.967 154.869C196.501 154.197 196.655 151.831 196.69 149.95C196.756 146.621 197.261 143.323 198.189 140.165C198.727 138.083 199.642 136.151 200.874 134.494C201.495 133.673 202.262 133.012 203.125 132.556C203.987 132.099 204.926 131.857 205.877 131.846C208.237 131.94 210.361 133.795 212.698 133.573C214.468 133.405 216.037 132.027 217.813 131.759C219.386 131.59 220.958 132.095 222.221 133.177C223.468 134.255 224.561 135.547 225.46 137.007C228.675 141.839 231.295 147.504 231.449 153.565C232.115 154.123 233.077 153.397 233.407 152.537C233.738 151.677 233.75 150.669 234.163 149.849C234.646 148.901 235.579 148.397 236.304 147.685C238.145 145.877 238.606 142.833 238.535 140.071C238.535 139.984 238.535 139.897 238.535 139.816C238.423 142.208 237.862 144.648 236.293 146.193Z" fill="black"/>
<path opacity="0.1" d="M192.737 145.716C191.38 144.016 189.527 142.88 188.282 141.079C187.234 139.485 186.635 137.566 186.566 135.576C186.38 138.063 186.99 140.542 188.282 142.558C189.527 144.365 191.38 145.501 192.737 147.201C194.04 148.864 194.822 150.972 194.962 153.195C195.052 151.842 194.901 150.483 194.519 149.197C194.137 147.912 193.531 146.728 192.737 145.716Z" fill="black"/>
<path opacity="0.1" d="M239.685 125.428C239.337 127.075 238.718 128.641 238.434 130.3C238.267 131.41 238.205 132.536 238.252 133.66C238.271 133.02 238.332 132.382 238.434 131.752C238.718 130.085 239.337 128.526 239.685 126.88C239.888 125.972 239.954 125.031 239.88 124.098C239.843 124.546 239.778 124.991 239.685 125.428Z" fill="black"/>
</g>
<path opacity="0.1" d="M78.3138 511.115C110.066 511.115 135.806 506.407 135.806 500.598C135.806 494.79 110.066 490.082 78.3138 490.082C46.5619 490.082 20.8219 494.79 20.8219 500.598C20.8219 506.407 46.5619 511.115 78.3138 511.115Z" fill="#4285F4"/>
<path d="M80.1666 299.133H76.4671V393.999H80.1666V299.133Z" fill="#535461"/>
<path d="M103.413 393.71L103.183 397.984L102.853 404.032L102.717 406.546L102.393 412.593L102.251 415.107L101.921 421.155L98.1917 489.746C98.0297 492.697 96.8863 495.467 94.9944 497.492C93.1025 499.517 90.6041 500.644 88.0079 500.645H68.6197C66.0241 500.644 63.5265 499.516 61.6355 497.491C59.7446 495.466 58.6025 492.696 58.4418 489.746L54.7306 421.108L54.4002 415.06L54.2645 412.546L53.9341 406.498L53.7984 403.985L53.4679 397.937L53.2319 393.663C53.1909 392.841 53.2979 392.017 53.5464 391.243C53.7948 390.47 54.1795 389.762 54.6767 389.163C55.174 388.565 55.7733 388.089 56.438 387.763C57.1027 387.438 57.8187 387.271 58.5421 387.273H98.1976C98.9183 387.28 99.6301 387.455 100.289 387.787C100.948 388.12 101.54 388.603 102.029 389.206C102.517 389.809 102.893 390.52 103.131 391.295C103.369 392.07 103.465 392.892 103.413 393.71Z" fill="#3F3D56"/>
<path d="M103.183 397.984L102.853 404.012H53.7749L53.4444 397.984H103.183Z" fill="#9D9CB5"/>
<path d="M102.717 406.526L102.393 412.56H54.2409L53.9105 406.526H102.717Z" fill="#9D9CB5"/>
<path d="M102.251 415.08L101.927 421.108H54.707L54.3766 415.08H102.251Z" fill="#9D9CB5"/>
<path d="M47.7978 334.689C69.3396 352.443 78.3315 380.21 78.3315 380.21C78.3315 380.21 52.3705 379.195 30.8228 361.441C9.27516 343.687 0.300896 315.927 0.300896 315.927C0.300896 315.927 26.2501 316.934 47.7978 334.689Z" fill="#4285F4"/>
<path d="M0.283239 315.927C0.283239 315.927 27.2355 332.962 35.8794 347.067C44.5232 361.172 78.3316 380.21 78.3316 380.21" stroke="#535461" stroke-width="2" stroke-miterlimit="10"/>
<path d="M61.7047 298.925C73.4285 308.582 78.3316 323.695 78.3316 323.695C78.3316 323.695 64.2005 323.144 52.4708 313.487C40.7411 303.831 35.8498 288.711 35.8498 288.711C35.8498 288.711 49.975 289.262 61.7047 298.925Z" fill="#4285F4"/>
<path d="M35.8498 288.711C35.8498 288.711 50.5178 297.984 55.2203 305.658C59.9228 313.333 78.3316 323.695 78.3316 323.695" stroke="#535461" stroke-width="2" stroke-miterlimit="10"/>
<path d="M95.3538 322.929C81.8836 339.789 79.0338 361.824 79.0338 361.824C79.0338 361.824 98.0266 356.515 111.485 339.648C124.944 322.781 127.805 300.753 127.805 300.753C127.805 300.753 108.824 306.068 95.3538 322.929Z" fill="#4285F4"/>
<path d="M127.817 300.76C127.817 300.76 110.27 318.043 105.809 329.951C101.348 341.859 79.0338 361.824 79.0338 361.824" stroke="#535461" stroke-width="2" stroke-miterlimit="10"/>
<path d="M589.829 316.995C589.829 316.995 580.088 261.797 583.817 254.929C583.817 254.929 583.953 248.545 583.728 240.407C583.728 240.098 583.728 239.789 583.728 239.473C584.384 239.972 585.068 240.421 585.776 240.817C589.211 242.828 593.156 243.408 596.927 242.457L593.977 238.714C593.269 237.82 592.532 236.853 592.378 235.67C592.225 234.487 592.65 233.432 593.015 232.377C595.818 224.313 595.965 214.173 590.567 208.017C586.006 202.843 584.897 196.163 579.946 191.439C576.329 187.978 574.341 182.905 572.465 177.999C570.878 173.853 569.279 169.673 568.37 165.278C567.662 161.844 567.379 158.289 566.405 154.936C565.432 151.583 563.609 148.324 560.759 146.825C559.744 146.294 558.617 145.992 557.691 145.286C556.475 144.352 555.744 142.833 554.864 141.503C550.398 134.783 535.441 138.741 528.361 141.469C526.436 142.156 524.653 143.281 523.121 144.775L523.186 144.654C523.239 144.554 523.304 144.453 523.363 144.352C522.588 145.066 521.919 145.917 521.381 146.872C520.348 148.733 519.917 150.904 519.056 152.92C518.017 155.306 512.241 161.965 514.725 164.646C514.899 164.826 515.099 164.972 515.315 165.076C516.248 165.518 517.274 165.635 518.265 165.412L518.159 165.701C517.311 168.067 516.876 170.599 516.879 173.154C516.879 184.195 524.873 193.146 534.745 193.146C536.6 193.148 538.445 192.824 540.214 192.185C540.255 192.44 540.291 192.696 540.332 192.951C540.332 193.052 540.362 193.153 540.373 193.253L540.061 193.751C540.045 193.72 540.027 193.691 540.008 193.663L530.744 208.407C529.328 209.543 521.174 216.263 520.714 221.303C520.23 226.82 519.746 233.278 519.746 233.278L519.681 234.662C519.276 235.047 518.803 235.328 518.294 235.484C517.784 235.641 517.251 235.67 516.731 235.569C513.84 235.031 513.84 247.665 513.84 247.665C513.84 247.665 511.917 249.681 510.595 247.934C509.273 246.187 505.78 252.107 505.78 252.107L483.89 253.182L483.389 253.216L482.209 249.056C482.082 248.617 481.808 248.253 481.447 248.043C481.085 247.833 480.666 247.794 480.279 247.934C480.188 247.968 480.099 248.011 480.014 248.062L479.931 248.115L479.778 248.236L479.701 248.317C479.659 248.361 479.62 248.408 479.583 248.458L479.512 248.552L479.477 248.592C479.341 248.807 479.251 249.055 479.214 249.316C479.177 249.578 479.194 249.845 479.265 250.098L480.279 253.666C476.055 254.634 471.736 257.362 475.258 264.875L457.404 261.118L463.181 266.642L493 273.651C492.605 274.458 492.865 275.627 494.098 277.273C499.408 284.376 509.084 286.305 512.979 286.802C514.007 289.422 515.292 291.902 516.808 294.194L516.472 301.27C516.472 301.27 506.612 355.205 504.807 357.94C505.718 356.764 506.552 355.513 507.303 354.197C504.441 365.278 500.441 380.445 499.39 382.717C497.703 386.345 496.139 401.029 498.063 401.969C498.653 402.258 500.34 402.117 502.748 401.909V403.125L502.641 449.218C502.641 449.218 503.125 477.489 501.798 480.183C500.47 482.878 500.116 488.529 500.116 488.529C500.116 488.529 494.806 499.678 490.599 504.16C490.57 504.195 490.539 504.227 490.505 504.254L490.375 503.206C490.375 503.206 485.318 510.477 474.131 510.067C474.131 510.067 467.399 515.053 477.382 515.322C487.366 515.591 500.116 514.919 500.116 514.919C500.116 514.919 509.02 499.463 516.477 501.479V513.192H518.761V501.291C519.82 500.497 520.726 499.466 521.425 498.261C522.124 497.057 522.6 495.703 522.826 494.282C523.022 492.817 522.878 491.32 522.411 489.938C521.943 488.555 521.167 487.336 520.159 486.399C519.706 485.933 519.343 485.365 519.092 484.732C518.842 484.098 518.709 483.412 518.702 482.717L518.619 482.797C518.619 482.562 518.566 482.32 518.543 482.072C517.888 476.024 517.067 463.545 519.964 454.311C523.935 441.651 525.139 424.018 522.248 413.521C521.315 410.166 520.549 406.753 519.953 403.3C519.882 402.863 519.817 402.446 519.758 402.057C521.734 402.361 523.691 402.81 525.617 403.401C532.314 405.504 546.964 405.894 559.473 405.78C559.502 406.169 559.537 406.579 559.579 406.989C559.802 409.839 560.268 412.656 560.971 415.403C562.541 420.779 563.26 444.48 563.26 444.48C563.26 444.48 565.284 463.968 564.181 471.898C563.591 476.306 563.001 480.734 562.665 485.183V485.27C562.665 485.27 559.349 496.022 556.924 501.862C556.865 502.01 556.8 502.158 556.741 502.299C556.094 502.366 555.458 502.526 554.847 502.776C554.847 502.776 551.596 510.168 548.356 511.391C545.117 512.614 546.191 516.639 553.525 515.161C560.859 513.682 571.934 512.473 571.934 512.473L572.412 504.933L574.666 501.721L574.076 509.24L576.477 508.703L576.158 499.557L579.846 494.302C579.846 494.302 584.301 489.786 577.681 480.902V481.097C577.61 480.97 577.545 480.835 577.468 480.707V480.667C576.371 478.732 575.498 475.123 577.096 468.719C579.988 457.147 581.669 446.644 581.669 446.644C581.669 446.644 588.124 418.507 580.365 405.195H580.707C579.912 403.322 579.35 401.331 579.038 399.281C578.998 399.039 578.963 398.791 578.931 398.535C584.672 398.159 590.307 396.976 594.903 394.423C594.886 394.396 592.119 327.626 589.829 316.995ZM516.944 270.426V270.56L515.764 270.627L516.944 270.426ZM512.896 271.064C512.702 271.113 512.52 271.212 512.365 271.353C511.858 272.171 511.539 273.12 511.439 274.115L509.598 273.645C509.598 273.645 508.306 273.329 506.447 272.973L505.568 271.965C507.987 271.736 510.501 271.4 512.896 271.064Z" fill="url(#paint1_linear)"/>
<path d="M573.804 499.651L573.102 509.173L575.456 508.636L575.102 498.307L573.804 499.651Z" fill="#1D2366"/>
<path d="M520.094 454.439C517.256 463.645 518.059 476.071 518.696 482.105C518.932 484.336 519.15 485.694 519.15 485.694C519.15 485.694 514.908 496.701 514.554 497.118C514.2 497.534 502.069 505.968 502.069 505.968L493.59 511.606C493.59 511.606 484.988 507.312 489.112 505.833C489.955 505.448 490.714 504.859 491.336 504.106C495.467 499.638 500.653 488.529 500.653 488.529C500.653 488.529 501.007 482.891 502.305 480.21C503.603 477.529 503.131 449.352 503.131 449.352L503.231 403.421V397.433L519.368 397.568C519.47 399.6 519.703 401.622 520.065 403.616C520.644 407.057 521.394 410.459 522.313 413.803C525.157 424.28 523.976 441.826 520.094 454.439Z" fill="#FFB0B1"/>
<path opacity="0.1" d="M519.15 485.694C519.15 485.694 514.908 496.701 514.554 497.118C514.2 497.534 502.069 505.968 502.069 505.968L493.59 511.606C493.59 511.606 484.988 507.312 489.112 505.833C489.955 505.448 490.714 504.859 491.336 504.106L491.702 507.043L494.528 506.909L518.72 482.119C518.932 484.336 519.15 485.694 519.15 485.694Z" fill="black"/>
<path d="M518.855 482.743L494.529 507.701L491.702 507.836L491.112 503.132C491.112 503.132 486.168 510.376 475.182 509.973C475.182 509.973 468.585 514.939 478.362 515.208C488.139 515.477 500.624 514.805 500.624 514.805C500.624 514.805 509.344 499.349 516.643 501.365V513.037H518.885V501.257C519.927 500.458 520.817 499.427 521.5 498.226C522.184 497.024 522.647 495.678 522.862 494.268C523.056 492.816 522.918 491.33 522.463 489.956C522.007 488.581 521.248 487.363 520.26 486.419C519.818 485.948 519.466 485.379 519.224 484.746C518.983 484.114 518.857 483.433 518.855 482.743Z" fill="#1D2366"/>
<path d="M576.046 468.793C574.477 475.177 575.332 478.772 576.406 480.701V480.741C577.783 483.122 578.741 485.786 579.226 488.583L579.321 489.188L568.252 507.567L562.246 510.255C562.246 510.255 552.587 506.499 554.351 505.423C554.794 505.161 555.484 503.764 556.275 501.835C558.635 496.022 561.892 485.297 561.892 485.297V485.21C562.234 480.781 562.777 476.366 563.378 471.971C564.458 464.062 562.476 444.648 562.476 444.648C562.476 444.648 561.768 421.041 560.234 415.671C559.541 412.941 559.081 410.142 558.859 407.312C558.54 403.952 558.469 401.183 558.469 401.183C558.469 401.183 564.83 391.103 576.489 401.989C577.421 402.858 578.241 403.871 578.926 405C586.979 418.05 580.495 446.798 580.495 446.798C580.495 446.798 578.872 457.255 576.046 468.793Z" fill="#FFB0B1"/>
<path opacity="0.1" d="M579.339 489.188L568.27 507.567L562.263 510.255C562.263 510.255 552.605 506.499 554.369 505.423C554.811 505.161 555.502 503.763 556.292 501.835C560.381 501.795 562.499 506.23 562.499 506.23L567.68 505.289C567.68 505.289 574.512 489.994 576.046 489.06C577.58 488.126 576.282 482.078 576.282 482.078V480.539C576.323 480.593 576.359 480.653 576.406 480.707V480.748C577.783 483.129 578.741 485.792 579.226 488.59L579.339 489.188Z" fill="black"/>
<path d="M562.853 506.626C562.853 506.626 559.903 500.457 554.251 502.736C554.251 502.736 551.07 510.128 547.89 511.324C544.71 512.52 545.772 516.552 552.959 515.08C560.145 513.608 570.978 512.392 570.978 512.392L571.45 504.872L578.754 494.275C578.754 494.275 583.109 489.779 576.63 480.929V482.468C576.63 482.468 577.928 488.516 576.394 489.45C574.86 490.384 568.051 505.686 568.051 505.686L562.853 506.626Z" fill="#1D2366"/>
<path opacity="0.1" d="M519.386 397.554C519.488 399.587 519.721 401.608 520.082 403.602C513.439 402.493 507.273 403.045 503.231 403.407V397.42L519.386 397.554Z" fill="black"/>
<path opacity="0.1" d="M579.58 406.673C579.58 406.673 570.14 407.197 558.882 407.305C558.564 403.945 558.493 401.176 558.493 401.176C558.493 401.176 564.853 391.096 576.512 401.983C577.445 402.851 578.265 403.864 578.949 404.993C579.132 405.566 579.343 406.127 579.58 406.673Z" fill="black"/>
<path d="M579.58 405.464C579.58 405.464 538.232 407.742 525.629 403.717C513.026 399.691 500.535 403.179 498.653 402.245C496.771 401.311 498.299 386.681 499.951 383.059C501.603 379.437 510.666 342.807 510.666 342.807L519.386 291.022L528.573 288.139L529.222 287.931L545.229 282.905L556.959 279.215C556.959 279.215 580.283 382.925 578.282 390.572C577.556 393.501 577.439 396.581 577.94 399.57C578.246 401.611 578.798 403.595 579.58 405.464Z" fill="#1D2366"/>
<path d="M488.988 255.608C488.988 255.608 480.728 265.688 486.982 271.306C493.236 276.924 497.349 271.843 497.349 271.843L488.988 255.608Z" fill="#C7DAF5"/>
<path opacity="0.1" d="M488.988 255.608C488.988 255.608 480.728 265.688 486.982 271.306C493.236 276.924 497.349 271.843 497.349 271.843L488.988 255.608Z" fill="black"/>
<path d="M555.726 189.335C555.726 189.335 554.758 190.384 553.301 191.929C551.224 194.14 548.15 197.373 545.424 200.081C541.648 203.824 538.532 206.572 539.648 204.227C540.763 201.882 540.55 197.796 539.996 193.972C539.954 193.717 539.919 193.462 539.878 193.213C539.418 190.405 538.81 187.631 538.055 184.907C538.055 184.907 544.155 175.929 547.53 172.388C548.787 171.044 549.666 170.493 549.719 171.427C549.778 172.683 550.604 175.459 551.631 178.402C551.661 178.496 551.69 178.583 551.725 178.678C552.41 180.694 553.183 182.763 553.861 184.551C554.9 187.293 555.726 189.335 555.726 189.335Z" fill="#FFB0B1"/>
<path opacity="0.1" d="M551.725 178.678C551.152 182.19 549.761 185.462 547.698 188.153C545.634 190.843 542.974 192.853 539.996 193.972C539.527 190.905 538.878 187.876 538.055 184.907C538.055 184.907 549.542 168.006 549.719 171.427C549.761 172.724 550.657 175.6 551.725 178.678Z" fill="black"/>
<path opacity="0.1" d="M538.851 198.488L540.338 196.102C540.338 196.102 541.323 202.943 544.946 199.926C548.569 196.909 548.746 222.633 548.746 222.633L544.858 288.845L516.761 286.93L517.557 254.936L520.737 238.808L528.602 215.362L533.281 207.614L538.851 198.488Z" fill="black"/>
<path d="M548.746 223.043L545.206 282.911L544.834 289.255L529.169 288.187L528.579 288.146L516.778 287.34L517.575 255.339L520.755 239.211L528.62 215.765L533.299 208.017L538.869 198.858L540.356 196.479C540.356 196.479 541.341 203.32 544.964 200.303L545.04 200.242C548.581 197.688 548.746 223.043 548.746 223.043Z" fill="#1D2366"/>
<path d="M521.15 233.607C521.15 233.607 519.74 236.967 516.908 236.422C514.076 235.878 514.082 248.518 514.082 248.518C514.082 248.518 512.2 250.534 510.902 248.787C509.604 247.04 506.182 252.947 506.182 252.947L484.74 254.022C484.74 254.022 494.281 258.988 492.41 274.014C492.41 274.014 524.803 271.729 525.865 268.242C526.927 264.754 521.15 233.607 521.15 233.607Z" fill="white"/>
<path opacity="0.03" d="M521.15 233.607C521.15 233.607 519.74 236.967 516.908 236.422C514.076 235.878 514.082 248.518 514.082 248.518C514.082 248.518 512.2 250.534 510.902 248.787C509.604 247.04 506.182 252.947 506.182 252.947L484.74 254.022C484.74 254.022 494.281 258.988 492.41 274.014C492.41 274.014 524.803 271.729 525.865 268.242C526.927 264.754 521.15 233.607 521.15 233.607Z" fill="black"/>
<path d="M458.838 261.918L464.49 267.415L511.02 278.55L505.249 271.843L458.838 261.918Z" fill="white"/>
<path d="M538.94 200.605C538.167 201.949 535.954 208.83 534.107 214.838C532.567 219.844 531.281 224.246 531.281 224.246C531.281 224.246 528.278 246.516 526.744 250.541C525.21 254.567 526.042 270.264 526.042 270.264L520.324 309.032C520.324 309.032 517.734 329.024 513.734 340.965C509.787 352.719 505.391 358.229 505.255 358.404C507.025 355.675 516.672 301.956 516.672 301.956L519.858 234.205C519.858 234.205 520.324 227.767 520.796 222.264C521.268 216.76 530.827 209.247 530.827 209.247L540.043 194.322C540.969 195.733 540.35 198.193 538.94 200.605Z" fill="white"/>
<path d="M514.908 287.676C514.908 287.676 501.337 287.004 494.765 278.013C488.192 269.021 509.958 274.424 509.958 274.424L515.616 275.903L514.908 287.676Z" fill="#FFB0B1"/>
<path opacity="0.1" d="M578.282 390.579C577.556 393.507 577.439 396.588 577.94 399.577C563.136 400.773 547.3 396.217 547.3 396.217C544.35 399.308 536.579 403.864 536.579 403.864L532.343 344.056C529.635 335.992 528.573 293.744 528.573 293.744C528.573 293.744 528.815 291.533 529.163 288.22C529.163 288.139 529.163 288.052 529.192 287.971C530.249 278.718 532.343 261.347 533.37 259.002C534.786 255.776 529.015 247.195 529.015 247.195L531.641 221.692L531.96 218.614C537.494 215.799 541.736 206.807 541.736 206.807L544.993 200.309C548.533 197.722 548.716 223.077 548.716 223.077L545.176 282.945L556.906 279.256C556.906 279.256 580.283 382.931 578.282 390.579Z" fill="black"/>
<path d="M593.476 394.712C577.338 403.837 548.008 395.384 548.008 395.384C545.058 398.475 537.288 403.031 537.288 403.031L533.045 343.223C530.343 335.159 529.281 292.911 529.281 292.911C529.281 292.911 532.691 261.387 534.107 258.168C534.52 257.228 534.32 255.83 533.83 254.325C531.422 247.16 530.537 239.448 531.246 231.819L532.379 220.859L532.691 217.788C538.232 214.966 542.474 205.974 542.474 205.974L545.424 200.088L550.852 189.242L553.425 184.108L553.861 184.558L557.195 187.998C557.195 187.998 558.611 189.342 560.735 191.358C565.355 195.794 573.338 203.602 577.456 208.38C581.079 212.587 582.224 228.95 582.554 241.268C582.772 249.379 582.643 255.736 582.643 255.736C578.99 262.583 588.543 317.56 588.543 317.56C590.767 328.184 593.476 394.712 593.476 394.712Z" fill="white"/>
<path opacity="0.03" d="M562.499 205.84C562.499 205.84 551.424 229.85 552.711 238.976C553.997 248.102 557.655 258.43 555.891 260.843C555.285 261.757 554.501 262.499 553.602 263.011C552.702 263.522 551.71 263.79 550.705 263.793C548.935 263.927 544.214 267.684 544.214 268.087C544.214 268.49 539.854 268.49 535.954 270.372C532.054 272.253 526.295 273.322 526.295 273.322C526.295 273.322 515.085 272.919 514.041 274.128C512.996 275.338 511.922 282.575 514.159 288.348C516.395 294.12 518.879 298.428 520.755 299.214C522.631 300 534.538 295.458 544.197 294.382C553.855 293.307 564.34 284.591 564.34 284.591C564.34 284.591 575.887 279.887 577.911 271.978C579.934 264.068 575.438 220.597 575.438 220.597C575.438 220.597 572.04 200.336 562.499 205.84Z" fill="black"/>
<path opacity="0.03" d="M561.083 203.824C561.083 203.824 550.008 227.841 551.306 236.96C552.605 246.079 556.251 256.414 554.481 258.833C553.877 259.748 553.095 260.491 552.196 261.003C551.297 261.515 550.305 261.782 549.3 261.784C547.53 261.918 542.81 265.674 542.81 266.078C542.81 266.481 538.45 266.481 534.55 268.356C530.65 270.231 524.891 271.306 524.891 271.306C524.891 271.306 513.681 270.903 512.642 272.112C511.604 273.322 510.518 280.566 512.76 286.332C515.002 292.097 517.48 296.412 519.357 297.198C521.233 297.984 533.14 293.441 542.798 292.373C552.457 291.304 562.942 282.575 562.942 282.575C562.942 282.575 574.483 277.871 576.483 269.968C578.483 262.066 574.011 218.581 574.011 218.581C574.011 218.581 570.624 198.327 561.083 203.824Z" fill="black"/>
<path d="M562.151 204.63C562.151 204.63 551.076 228.648 552.374 237.767C553.673 246.886 557.319 257.221 555.555 259.633C554.951 260.55 554.168 261.295 553.268 261.808C552.368 262.321 551.375 262.589 550.368 262.59C548.598 262.725 543.878 266.481 543.878 266.877C543.878 267.274 539.524 267.281 535.618 269.162C531.712 271.044 525.959 272.112 525.959 272.112C525.959 272.112 514.749 271.709 513.704 272.919C512.66 274.128 511.586 281.373 513.822 287.138C516.059 292.904 518.543 297.218 520.419 298.004C522.295 298.791 534.202 294.248 543.86 293.173C553.519 292.098 564.004 283.382 564.004 283.382C564.004 283.382 575.551 278.678 577.574 270.768C579.598 262.859 575.132 219.387 575.132 219.387C575.132 219.387 571.686 199.16 562.151 204.63Z" fill="white"/>
<path opacity="0.1" d="M561.909 269.048C561.909 269.048 553.059 267.032 556.139 270.392C559.219 273.752 559.201 276.695 562.971 276.561C566.742 276.427 561.909 269.048 561.909 269.048Z" fill="black"/>
<path opacity="0.1" d="M576.866 341.342C576.866 341.342 572.866 344.426 580.519 351.536C588.171 358.646 576.866 341.342 576.866 341.342Z" fill="black"/>
<path opacity="0.1" d="M569.231 366.696C569.231 367.099 567.815 381.48 573.114 385.075C578.412 388.67 569.231 366.696 569.231 366.696Z" fill="black"/>
<path d="M485.106 253.989C480.834 254.157 471.606 255.642 476.391 265.809C480.622 274.807 487.731 268.793 491.732 264.23C490.756 259.976 488.384 256.31 485.106 253.989Z" fill="#FFB0B1"/>
<path d="M491.785 264.147L491.961 263.941L491.785 264.147Z" fill="#FFB0B1"/>
<path opacity="0.1" d="M560.735 191.768C556.204 195.296 552.404 198.273 551.661 198.891C549.631 200.605 545.76 210.665 543.264 215.799C541.276 219.932 534.815 220.993 532.379 221.255L532.691 218.184C538.232 215.362 542.474 206.371 542.474 206.371L553.425 184.504L557.195 188.408C557.195 188.408 558.611 189.752 560.735 191.768Z" fill="black"/>
<path d="M560.735 191.365C556.204 194.893 552.404 197.87 551.661 198.495C549.631 200.202 545.76 210.262 543.264 215.396C541.276 219.528 534.815 220.59 532.379 220.852L532.691 217.781C538.232 214.959 542.474 205.968 542.474 205.968L553.425 184.101L557.195 187.992C557.195 187.992 558.611 189.322 560.735 191.365Z" fill="#DCE7FF"/>
<path d="M552.015 174.242C552.017 178.276 550.943 182.216 548.935 185.539C546.563 189.467 543.033 192.298 538.986 193.516C534.938 194.734 530.642 194.259 526.876 192.178C523.109 190.097 520.123 186.547 518.458 182.172C516.793 177.798 516.56 172.888 517.802 168.335C519.043 163.782 521.677 159.886 525.224 157.355C528.772 154.824 532.999 153.825 537.138 154.54C541.277 155.254 545.053 157.635 547.783 161.25C550.513 164.865 552.014 169.475 552.015 174.242Z" fill="#FFB0B1"/>
<path opacity="0.1" d="M582.554 241.274C580.158 239.595 578.207 237.208 576.908 234.366C575.922 232.148 575.267 229.588 573.586 228.016C572.069 226.604 570.046 226.262 568.158 225.63C561.951 223.54 556.747 217.089 556.552 209.724C556.457 206.256 557.407 202.796 556.977 199.362C556.732 197.418 556.053 195.579 555.006 194.019C554.486 193.273 553.916 192.575 553.301 191.929C552.475 191.042 551.607 190.182 550.852 189.241C550.376 188.659 549.961 188.016 549.613 187.326C549.333 186.761 549.105 186.164 548.935 185.545C547.755 181.433 548.828 176.554 547.53 172.394L547.46 172.166C546.97 170.687 545.973 169.209 544.586 169.095C543.2 168.981 542.014 170.291 540.692 170.876C537.925 172.099 534.939 170.015 532.632 167.892C530.325 165.768 527.723 163.343 524.791 163.813C522.85 164.129 521.316 165.634 519.528 166.414C519.124 166.592 518.708 166.729 518.283 166.823C519.796 162.526 522.576 158.963 526.145 156.746C529.714 154.53 533.849 153.798 537.84 154.676C541.832 155.555 545.43 157.989 548.016 161.561C550.603 165.133 552.017 169.619 552.015 174.249C552.017 175.647 551.888 177.042 551.631 178.409C551.661 178.503 551.69 178.59 551.725 178.684C552.41 180.7 553.183 182.77 553.861 184.557L557.195 187.998C557.195 187.998 558.611 189.342 560.735 191.358C565.355 195.793 573.338 203.602 577.456 208.38C581.079 212.6 582.212 228.956 582.554 241.274Z" fill="black"/>
<path d="M519.321 154.136C520.165 152.181 520.584 149.99 521.593 148.135C523.074 145.447 525.658 143.727 528.313 142.685C535.246 139.964 549.896 136.012 554.274 142.685C555.136 144.029 555.85 145.521 557.042 146.449C557.95 147.154 559.048 147.457 560.045 147.987C562.836 149.479 564.618 152.732 565.567 156.051C566.517 159.371 566.801 162.933 567.497 166.353C568.388 170.741 569.951 174.901 571.509 179.034C573.344 183.912 575.291 188.973 578.831 192.42C583.663 197.124 584.731 203.783 589.216 208.944C594.526 215.073 594.355 225.187 591.617 233.217C591.257 234.272 590.85 235.374 590.992 236.496C591.133 237.619 591.865 238.64 592.555 239.534L595.458 243.263C588.59 245.152 580.82 241.066 577.622 233.896C576.636 231.678 575.981 229.124 574.294 227.545C572.783 226.134 570.754 225.798 568.872 225.166C562.665 223.07 557.461 216.612 557.266 209.247C557.171 205.786 558.121 202.325 557.691 198.898C557.451 196.942 556.77 195.089 555.714 193.522C554.092 191.11 551.643 189.49 550.321 186.802C548.085 182.306 549.784 176.467 548.174 171.642C547.678 170.163 546.687 168.685 545.3 168.571C543.914 168.456 542.728 169.767 541.4 170.352C538.639 171.575 535.653 169.498 533.346 167.368C531.039 165.238 528.437 162.818 525.499 163.296C523.558 163.605 522.03 165.11 520.242 165.896C518.92 166.474 516.241 166.992 515.085 165.721C512.642 163.161 518.301 156.529 519.321 154.136Z" fill="#591D4B"/>
<path opacity="0.1" d="M579.262 231.678C578.271 229.461 577.622 226.907 575.934 225.334C574.424 223.923 572.394 223.581 570.506 222.949C564.305 220.859 559.101 214.401 558.9 207.036C558.806 203.575 559.756 200.108 559.331 196.68C559.084 194.737 558.403 192.897 557.354 191.338C555.726 188.926 553.277 187.306 551.961 184.618C549.725 180.129 551.425 174.289 549.808 169.458C549.318 167.986 548.321 166.508 546.94 166.387C545.56 166.266 544.362 167.59 543.04 168.174C540.279 169.397 537.288 167.314 534.987 165.191C532.685 163.067 530.072 160.641 527.139 161.112C525.198 161.427 523.664 162.933 521.882 163.712C520.56 164.29 517.876 164.814 516.719 163.544C514.289 160.856 519.947 154.237 520.962 151.858C521.805 149.896 522.224 147.712 523.239 145.857C523.292 145.756 523.351 145.656 523.41 145.555C522.651 146.271 521.996 147.119 521.469 148.068C520.46 149.923 520.041 152.1 519.198 154.069C518.177 156.448 512.518 163.087 514.955 165.755C516.135 167.032 518.79 166.508 520.112 165.93C521.882 165.144 523.428 163.638 525.369 163.329C528.319 162.852 530.915 165.278 533.216 167.401C535.518 169.525 538.527 171.608 541.276 170.385C542.598 169.8 543.754 168.483 545.17 168.604C546.586 168.725 547.53 170.197 548.044 171.675C549.655 176.5 547.955 182.34 550.191 186.836C551.513 189.477 553.962 191.13 555.584 193.556C556.64 195.123 557.321 196.975 557.561 198.932C557.992 202.359 557.042 205.82 557.136 209.28C557.331 216.672 562.535 223.103 568.742 225.2C570.612 225.832 572.654 226.168 574.164 227.579C575.857 229.158 576.524 231.712 577.492 233.929C580.69 241.1 588.46 245.185 595.328 243.297L593.959 241.536C588.006 241.637 581.982 237.78 579.262 231.678Z" fill="black"/>
<path opacity="0.1" d="M538.586 201.008C537.813 202.352 535.6 209.233 533.753 215.241C532.025 214.475 530.455 209.59 530.455 209.59L539.671 194.658C540.615 196.136 539.996 198.589 538.586 201.008Z" fill="black"/>
<path d="M538.939 200.605C538.167 201.949 535.954 208.83 534.107 214.838C532.379 214.079 530.809 209.186 530.809 209.186L540.025 194.261C540.969 195.733 540.35 198.192 538.939 200.605Z" fill="#DCE7FF"/>
<path d="M485.354 269.256L480.244 250.904C480.184 250.689 480.161 250.463 480.177 250.238C480.194 250.013 480.249 249.794 480.34 249.594C480.431 249.393 480.556 249.215 480.708 249.07C480.859 248.925 481.035 248.815 481.223 248.747C481.604 248.612 482.015 248.653 482.369 248.862C482.723 249.071 482.99 249.43 483.111 249.862L488.221 268.194L487.714 272.032L485.354 269.256Z" fill="#BE8B87"/>
<path opacity="0.1" d="M480.728 249.291C481.109 249.154 481.522 249.194 481.877 249.403C482.232 249.612 482.5 249.973 482.622 250.407L487.731 268.739L487.348 271.615L487.72 272.058L488.227 268.221L483.088 249.889C482.966 249.457 482.699 249.098 482.346 248.889C481.992 248.68 481.58 248.639 481.2 248.774C480.88 248.892 480.604 249.128 480.415 249.446C480.515 249.384 480.62 249.333 480.728 249.291Z" fill="white"/>
<path d="M485.354 269.256L488.221 268.221L487.802 271.366L487.714 272.059L486.876 271.064L485.354 269.256Z" fill="#EFC8C4"/>
<path d="M486.876 271.064C486.926 270.992 486.988 270.933 487.059 270.889C487.1 270.859 487.148 270.844 487.197 270.844C487.247 270.844 487.295 270.859 487.336 270.889C487.376 270.945 487.41 271.006 487.436 271.071C487.475 271.145 487.529 271.208 487.592 271.256C487.655 271.304 487.727 271.334 487.802 271.346L487.714 272.018L486.876 271.064Z" fill="#727A9C"/>
<path d="M480.215 257.422C480.215 257.422 490.463 257.355 488.05 262.321C485.637 267.287 481.867 267.885 481.867 267.885L480.215 257.422Z" fill="#FFB0B1"/>
<path d="M416.474 34.5541H416.032C398.425 34.5541 382.855 45.1649 373.898 60.8225C364.942 45.1649 349.371 34.5541 331.765 34.5541H331.322C318.109 34.6975 305.479 40.7741 296.178 51.4634C286.877 62.1527 281.655 76.5909 281.648 91.6403C281.648 110.329 288.834 136.846 302.847 158.665C329.546 200.242 373.898 236.617 373.898 236.617C373.898 236.617 418.25 200.249 444.943 158.665C458.962 136.846 466.142 110.329 466.142 91.6403C466.135 76.592 460.914 62.1548 451.614 51.4657C442.314 40.7766 429.686 34.6992 416.474 34.5541ZM410.143 161.864C408.138 161.855 406.182 161.156 404.532 159.859C402.882 158.561 401.615 156.726 400.898 154.593H390.372C389.678 154.588 389.004 154.337 388.442 153.874C387.881 153.412 387.46 152.761 387.239 152.013L384.005 140.918L373.774 181.634C373.575 182.418 373.158 183.107 372.585 183.598C372.013 184.089 371.316 184.355 370.6 184.356H370.393C369.646 184.315 368.933 183.983 368.375 183.415C367.816 182.848 367.446 182.079 367.325 181.238L356.782 109.012L349.076 151.751C348.899 152.563 348.489 153.284 347.91 153.799C347.332 154.314 346.618 154.594 345.884 154.593H331.057C330.612 154.615 330.168 154.533 329.752 154.354C329.336 154.175 328.956 153.902 328.635 153.552C328.314 153.201 328.058 152.78 327.883 152.314C327.709 151.848 327.619 151.347 327.619 150.84C327.619 150.333 327.709 149.832 327.883 149.366C328.058 148.9 328.314 148.479 328.635 148.128C328.956 147.778 329.336 147.505 329.752 147.326C330.168 147.147 330.612 147.066 331.057 147.087H343.288L354.203 89.6243C354.382 88.7748 354.815 88.0225 355.427 87.4961C356.04 86.9696 356.793 86.7018 357.56 86.7383C358.326 86.7748 359.058 87.1134 359.629 87.6962C360.201 88.279 360.577 89.0698 360.693 89.9335L371.461 163.611L380.63 127.182C380.821 126.415 381.225 125.739 381.781 125.254C382.337 124.77 383.016 124.503 383.716 124.494H383.781C384.474 124.495 385.15 124.744 385.712 125.208C386.273 125.671 386.692 126.324 386.908 127.075L392.755 147.107H400.768C401.337 145.136 402.374 143.382 403.764 142.04C405.153 140.697 406.841 139.818 408.642 139.499C410.442 139.181 412.285 139.435 413.967 140.233C415.649 141.032 417.104 142.344 418.172 144.026C419.24 145.707 419.88 147.692 420.02 149.761C420.161 151.83 419.796 153.903 418.968 155.751C418.139 157.599 416.878 159.151 415.324 160.234C413.77 161.318 411.983 161.891 410.161 161.891L410.143 161.864Z" fill="#4285F4"/>
</g>
<defs>
<linearGradient id="paint0_linear" x1="210.243" y1="520.711" x2="210.243" y2="107.204" gradientUnits="userSpaceOnUse">
<stop stop-color="#808080" stop-opacity="0.25"/>
<stop offset="0.54" stop-color="#808080" stop-opacity="0.12"/>
<stop offset="1" stop-color="#808080" stop-opacity="0.1"/>
</linearGradient>
<linearGradient id="paint1_linear" x1="131702" y1="311997" x2="131702" y2="99739.9" gradientUnits="userSpaceOnUse">
<stop stop-color="#808080" stop-opacity="0.25"/>
<stop offset="0.54" stop-color="#808080" stop-opacity="0.12"/>
<stop offset="1" stop-color="#808080" stop-opacity="0.1"/>
</linearGradient>
<clipPath id="clip0">
<rect width="652" height="526" fill="white"/>
</clipPath>
</defs>
</svg>
